# xmcd
#
# Track frame offsets:
#	150
#	20254
#	50158
#	63706
#	73553
#	97748
#	114061
#	132430
#	147237
#	163313
#	177931
#	188443
#	199189
#	209324
#	225230
#	240593
#	254806
#	269578
#	287614
#	309101
#	323081
#	343131
#
# Disc length: 4784 seconds
#
# Revision: 1
# Processed by: cddbd v1.5.1PL2 Copyright (c) Steve Scherf et al.
# Submitted via: audiograbber 1.83.01
#
DISCID=4212ae16
DTITLE=Машина Времени - Коллекция нового века CD1
DYEAR=2002
DGENRE=
TTITLE0=Место где свет
TTITLE1=Звезды не ездят в метро
TTITLE2=Иногда я пою
TTITLE3=Меня заказали
TTITLE4=Утренний ангел пустых бутылок
TTITLE5=Поворот
TTITLE6=Марионетки
TTITLE7=Костер
TTITLE8=За тех,кто в море
TTITLE9=Скачки
TTITLE10=Она идет по жизни,смеясь
TTITLE11=Разговор в поезде
TTITLE12=Синяя птица
TTITLE13=Он был старше ее
TTITLE14=Он играет на похоронах
TTITLE15=Скворец
TTITLE16=Эпоха большой нелюбви
TTITLE17=Мой друг
TTITLE18=Перекресток
TTITLE19=Где его носит теперь
TTITLE20=Мы будем вместе
TTITLE21=В добрый час
EXTD=
EXTT0=
EXTT1=
EXTT2=
EXTT3=
EXTT4=
EXTT5=
EXTT6=
EXTT7=
EXTT8=
EXTT9=
EXTT10=
EXTT11=
EXTT12=
EXTT13=
EXTT14=
EXTT15=
EXTT16=
EXTT17=
EXTT18=
EXTT19=
EXTT20=
EXTT21=
PLAYORDER=
